<svg width="45" height="30" viewBox="0 0 45 30" fill="none" xmlns="http://www.w3.org/2000/svg">
<path d="M4.1702 29C5.84259 29 7.3404 27.7322 7.3404 26C7.3404 24.2678 5.84259 23 4.1702 23C2.49781 23 1 24.2678 1 26C1 27.7322 2.49781 29 4.1702 29Z" stroke="#97BBF0" stroke-width="2"/>
<path d="M16.1062 12C17.7786 12 19.2764 10.7322 19.2764 9C19.2764 7.26782 17.7786 6 16.1062 6C14.4338 6 12.936 7.26782 12.936 9C12.936 10.7322 14.4338 12 16.1062 12Z" stroke="#97BBF0" stroke-width="2"/>
<path d="M29.1275 24C30.7999 24 32.2977 22.7322 32.2977 21C32.2977 19.2678 30.7999 18 29.1275 18C27.4551 18 25.9573 19.2678 25.9573 21C25.9573 22.7322 27.4551 24 29.1275 24Z" stroke="#97BBF0" stroke-width="2"/>
<path d="M39.9785 7C41.6509 7 43.1487 5.73218 43.1487 4C43.1487 2.26782 41.6509 1 39.9785 1C38.3062 1 36.8083 2.26782 36.8083 4C36.8083 5.73218 38.3062 7 39.9785 7Z" stroke="#97BBF0" stroke-width="2"/>
<path d="M7.42554 21L12.851 14" stroke="#97BBF0" stroke-width="2" stroke-linecap="round"/>
<path d="M32.3828 16L36.7232 9" stroke="#97BBF0" stroke-width="2" stroke-linecap="round"/>
<path d="M20.4468 13L24.7872 17" stroke="#97BBF0" stroke-width="2" stroke-linecap="round"/>
</svg>
