<svg width="35" height="35" viewBox="0 0 35 35" fill="none" xmlns="http://www.w3.org/2000/svg">
<path d="M2.39624 21.3255V28.7385C2.39624 30.8565 3.62514 33.504 8.54074 33.504H25.5778C30.4933 33.504 31.7222 30.8565 31.7222 28.7385V21.3255" stroke="#97BBF0" stroke-width="2" stroke-linecap="round" stroke-linejoin="round"/>
<path d="M24.768 1.50403V3.77982M9.35093 1.50403V3.77982M1 15.7123C1 13.006 2.28476 7.5933 6.13903 7.5933H12.5628C16.1872 7.5933 17.9318 7.5933 21.5561 7.5933H27.9799C33.119 7.5933 33.119 15.7123 33.119 15.7123H1Z" stroke="#97BBF0" stroke-width="2" stroke-linecap="round" stroke-linejoin="round"/>
<path d="M10.5168 23.4054H13.4908" stroke="#97BBF0" stroke-width="2" stroke-linecap="round" stroke-linejoin="round"/>
<path d="M20.0334 23.4054H23.0074" stroke="#97BBF0" stroke-width="2" stroke-linecap="round" stroke-linejoin="round"/>
<path d="M10.5168 28.0162H13.4908" stroke="#97BBF0" stroke-width="2" stroke-linecap="round" stroke-linejoin="round"/>
<path d="M20.0334 28.0162H23.0074" stroke="#97BBF0" stroke-width="2" stroke-linecap="round" stroke-linejoin="round"/>
</svg>
