<svg width="38" height="42" viewBox="0 0 38 42" fill="none" xmlns="http://www.w3.org/2000/svg">
<path d="M1 23H6C6 26.312 7.3432 29.4002 9.5 31.7349M19 36C15.312 36 11.9016 34.3345 9.5 31.7349M19 36V41M19 36C22.688 36 26.0984 34.3345 28.5 31.7349M37 23H32C32 26.312 30.6568 29.4002 28.5 31.7349M6 35.5L9.5 31.7349M32 35.5L28.5 31.7349" stroke="#97BBF0" stroke-width="2" stroke-linecap="round" stroke-linejoin="round"/>
<circle cx="19" cy="6" r="5" stroke="#97BBF0" stroke-width="2"/>
<path d="M12 27V19.6522C12 16.5306 15.134 14 19 14C22.866 14 26 16.5306 26 19.6522V27" stroke="#97BBF0" stroke-width="2"/>
<path d="M19.6 19.6696H18.4L18 18H20L19.6 19.6696Z" stroke="#97BBF0" stroke-width="2" stroke-linejoin="round"/>
<path d="M17.2 22C16.8 23.5649 16 28.892 16 29.0423C16.4667 29.6682 18.68 32 19 32C19.32 32 21.5333 29.6682 22 29.0423L20.8 22" stroke="#97BBF0" stroke-width="2" stroke-linejoin="round"/>
</svg>
