<svg width="39" height="34" viewBox="0 0 39 34" fill="none" xmlns="http://www.w3.org/2000/svg">
<path d="M12.6143 3.61818C12.6143 2.30909 12.6143 1 15.1952 1C17.26 1 20.3572 1 22.9382 1C25.5192 1 25.5192 2.30909 25.5192 3.61818" stroke="#97BBF0" stroke-width="2" stroke-linecap="round"/>
<path d="M3.58081 22.1296V29.6023C3.58081 32.2205 4.22606 32.875 6.80705 32.875C6.80705 32.875 22.9382 32.875 31.3264 32.875C33.9074 32.875 34.5527 32.2205 34.5527 29.6023C34.5527 28.0314 34.5527 22.1296 34.5527 22.1296" stroke="#97BBF0" stroke-width="2" stroke-linecap="round"/>
<path d="M26.8099 20.6364C28.7456 19.9819 32.877 18.541 33.9076 18.0183C34.7509 17.5905 37.1338 16.7092 37.1338 15.4001C37.1338 13.8094 37.1338 11.7346 37.1338 10.1637C37.1338 8.5928 35.8433 8.20007 35.1981 8.20007H2.93574C2.29049 8.20007 1 8.5928 1 10.1637C1 11.7346 1 13.8728 1 15.4001C1 16.7092 3.41005 17.6043 4.22623 18.0183C5.36697 18.5968 10.6787 19.9819 12.6144 20.6364M17.1312 19.3273V23.9092H22.2931V19.3273H17.1312Z" stroke="#97BBF0" stroke-width="2" stroke-linecap="round" stroke-linejoin="round"/>
</svg>
