<svg width="36" height="36" viewBox="0 0 36 36" fill="none" xmlns="http://www.w3.org/2000/svg">
<path d="M15.3813 3.70183L2.41044 28.6969C2.14301 29.2315 2.00151 29.8376 2.00001 30.4549C1.99851 31.0722 2.13707 31.6793 2.40191 32.2156C2.66674 32.7519 3.04861 33.1988 3.50953 33.5119C3.97045 33.8249 4.49436 33.9932 5.02912 34H30.9709C31.5056 33.9932 32.0295 33.8249 32.4905 33.5119C32.9514 33.1988 33.3333 32.7519 33.5981 32.2156C33.8629 31.6793 34.0015 31.0722 34 30.4549C33.9985 29.8376 33.857 29.2315 33.5896 28.6969L20.6187 3.70183C20.3457 3.18232 19.9613 2.75279 19.5026 2.4547C19.0439 2.1566 18.5264 2 18 2C17.4736 2 16.9561 2.1566 16.4974 2.4547C16.0387 2.75279 15.6543 3.18232 15.3813 3.70183V3.70183Z" stroke="#F93232" stroke-width="3" stroke-linecap="round" stroke-linejoin="round"/>
<path d="M17.7065 12.5857L17.7065 24.5857" stroke="#F93232" stroke-width="3" stroke-linecap="round" stroke-linejoin="round"/>
<path d="M17.7065 29.5856H17.7219" stroke="#F93232" stroke-width="3" stroke-linecap="round" stroke-linejoin="round"/>
</svg>
